<?xml version="1.0" encoding="iso-8859-1"?>
<!-- Generator: Adobe Illustrator 19.0.0, SVG Export Plug-In . SVG Version: 6.00 Build 0)  -->
<svg version="1.1" id="Capa_1" xmlns="http://www.w3.org/2000/svg" xmlns:xlink="http://www.w3.org/1999/xlink" x="0px" y="0px"
	 viewBox="0 0 480 480" style="enable-background:new 0 0 480 480;" xml:space="preserve">
<g>
	<g>
		<path fill="#FFFFFF" d="M472,80h-72c-4.416,0-8,3.576-8,8v40v217.136c-13.76,3.576-24,15.992-24,30.864c0,17.648,14.352,32,32,32s32-14.352,32-32
			c0-14.872-10.24-27.288-24-30.864V136h64c4.416,0,8-3.576,8-8V88C480,83.576,476.416,80,472,80z M416,376c0,8.824-7.176,16-16,16
			c-8.824,0-16-7.176-16-16c0-8.824,7.176-16,16-16C408.824,360,416,367.176,416,376z M464,120h-56V96h56V120z"/>
	</g>
</g>
<g>
	<g>
		<path fill="#FFFFFF" d="M480,0H192v0.76C186.728,0.28,181.4,0,176,0C78.952,0,0,78.952,0,176v296c0,4.424,3.584,8,8,8h16h24h296h136v-16H352v-24
			v-32v-32V176v-8c0-0.424-0.176-0.792-0.24-1.192C348.296,99.8,307.152,42.624,249.184,16H480V0z M336,464H56v-16h280V464z
			 M336,432H56v-16h280V432z M336,400H56v-16h280V400z M336,336H119.192c-3.184-15.648-15.544-28.008-31.192-31.192V239.2
			c15.648-3.184,28.008-15.544,31.192-31.192H336V336z M336,192.008L112,192c-2.12,0-4.16,0.84-5.656,2.344
			C104.848,195.848,104,197.872,104,200c0,13.232-10.768,24-24,24c-2.12,0-4.16,0.84-5.656,2.344C72.848,227.848,72,229.872,72,232
			v80c0,4.424,3.584,8,8,8c13.232,0,24,10.768,24,24c0,4.424,3.584,8,8,8h224v16H56V176h280V192.008z M335.192,160H48
			c-4.416,0-8,3.576-8,8v208v32v32v24H24h-8V176C16,87.776,87.776,16,176,16C258.824,16,327.136,79.256,335.192,160z"/>
	</g>
</g>
<g>
	<g>
		<path fill="#FFFFFF" d="M240,224c-26.472,0-48,21.528-48,48s21.528,48,48,48s48-21.528,48-48S266.472,224,240,224z M240,304
			c-17.648,0-32-14.352-32-32s14.352-32,32-32s32,14.352,32,32S257.648,304,240,304z"/>
	</g>
</g>
<g>
	<g>
		<path fill="#FFFFFF" d="M272,80h-16c0,13.232-10.768,24-24,24v16c13.232,0,24,10.768,24,24h16c0-13.232,10.768-24,24-24v-16
			C282.768,104,272,93.232,272,80z M264,120.248c-2.336-3.144-5.104-5.912-8.248-8.248c3.144-2.336,5.912-5.104,8.248-8.248
			c2.336,3.144,5.104,5.912,8.248,8.248C269.104,114.336,266.336,117.104,264,120.248z"/>
	</g>
</g>
<g>
	<g>
		<path fill="#FFFFFF" d="M120,48h-16c0,13.232-10.768,24-24,24v16c13.232,0,24,10.768,24,24h16c0-13.232,10.768-24,24-24V72
			C130.768,72,120,61.232,120,48z M112,88.248c-2.336-3.144-5.104-5.912-8.248-8.248c3.144-2.336,5.912-5.104,8.248-8.248
			c2.336,3.144,5.104,5.912,8.248,8.248C117.104,82.336,114.336,85.104,112,88.248z"/>
	</g>
</g>
<g>
</g>
<g>
</g>
<g>
</g>
<g>
</g>
<g>
</g>
<g>
</g>
<g>
</g>
<g>
</g>
<g>
</g>
<g>
</g>
<g>
</g>
<g>
</g>
<g>
</g>
<g>
</g>
<g>
</g>
</svg>
