<?xml version="1.0" encoding="iso-8859-1"?>
<!-- Generator: Adobe Illustrator 19.0.0, SVG Export Plug-In . SVG Version: 6.00 Build 0)  -->
<svg version="1.1" id="Capa_1" xmlns="http://www.w3.org/2000/svg" xmlns:xlink="http://www.w3.org/1999/xlink" x="0px" y="0px"
	 viewBox="0 0 512 512" style="enable-background:new 0 0 512 512;" xml:space="preserve">
<g>
	<g>
		<path fill="#FFFFFF" d="M256.001,236.426c-10.792,0-19.573,8.78-19.573,19.573c0,10.793,8.78,19.573,19.573,19.573s19.573-8.78,19.573-19.573
			C275.574,245.206,266.794,236.426,256.001,236.426z"/>
	</g>
</g>
<g>
	<g>
		<path fill="#FFFFFF" d="M321.7,256c0-8.473,6.87-15.343,15.343-15.343h9.038c-2.34-13.781-7.77-26.524-15.559-37.481l-6.367,6.367
			c-2.996,2.996-6.923,4.494-10.848,4.494s-7.854-1.497-10.848-4.493c-5.992-5.992-5.992-15.706,0-21.698l6.367-6.367
			c-10.957-7.789-23.699-13.219-37.481-15.56v9.039c0,8.473-6.87,15.343-15.343,15.343c-8.473,0-15.343-6.87-15.343-15.343v-9.039
			c-13.781,2.34-26.524,7.771-37.481,15.56l6.367,6.367c5.992,5.992,5.992,15.706,0,21.698c-2.996,2.996-6.923,4.494-10.848,4.494
			c-3.926,0-7.854-1.497-10.848-4.494l-6.367-6.367c-7.789,10.957-13.219,23.7-15.56,37.481h9.039
			c8.473,0,15.343,6.87,15.343,15.343c0,8.473-6.872,15.342-15.345,15.342h-9.039c2.34,13.781,7.771,26.524,15.56,37.481
			l6.367-6.367c5.991-5.992,15.706-5.992,21.698,0c5.992,5.992,5.992,15.706,0,21.698l-6.367,6.367
			c10.957,7.789,23.7,13.219,37.481,15.56v-9.039c0-8.473,6.87-15.343,15.343-15.343c8.473,0,15.343,6.87,15.343,15.343v9.039
			c13.781-2.34,26.524-7.771,37.481-15.56l-6.367-6.367c-5.992-5.992-5.992-15.706,0-21.698c5.992-5.991,15.707-5.991,21.698,0
			l6.367,6.367c7.789-10.957,13.219-23.7,15.559-37.481h-9.038C328.57,271.342,321.7,264.473,321.7,256z M256.001,306.26
			c-27.713,0-50.259-22.546-50.259-50.259c0-27.713,22.546-50.259,50.259-50.259c27.713,0,50.259,22.546,50.259,50.259
			C306.26,283.714,283.714,306.26,256.001,306.26z"/>
	</g>
</g>
<g>
	<g>
		<path fill="#FFFFFF" d="M103.911,81.523v348.953h304.18V81.523H103.911z M343.303,341.212c-0.311,0.377-0.64,0.746-0.993,1.099
			c-0.352,0.352-0.719,0.679-1.094,0.989c-22.014,21.493-52.092,34.762-85.216,34.762s-63.201-13.268-85.215-34.76
			c-0.376-0.311-0.744-0.638-1.096-0.991c-0.352-0.352-0.679-0.719-0.989-1.094c-21.493-22.014-34.762-52.092-34.762-85.216
			s13.27-63.203,34.763-85.217c0.311-0.376,0.637-0.743,0.989-1.094c0.352-0.352,0.72-0.68,1.097-0.991
			c22.014-21.492,52.091-34.76,85.214-34.76c33.122,0,63.199,13.268,85.212,34.759c0.376,0.311,0.745,0.639,1.096,0.991
			c0.353,0.353,0.682,0.721,0.993,1.099c21.491,22.013,34.758,52.09,34.758,85.212S364.794,319.198,343.303,341.212z"/>
	</g>
</g>
<g>
	<g>
		<path fill="#FFFFFF" d="M422.025,0H89.976c-37.269,0-67.59,30.321-67.59,67.59V444.41c0,37.269,30.321,67.59,67.59,67.59h332.048
			c37.269,0,67.589-30.321,67.589-67.59V67.59C489.613,30.321,459.294,0,422.025,0z M438.777,445.819
			c0,8.473-6.87,15.343-15.343,15.343H88.568c-8.473,0-15.343-6.87-15.343-15.343V66.18c0-8.473,6.87-15.343,15.343-15.343h334.866
			c8.473,0,15.343,6.87,15.343,15.343V445.819z"/>
	</g>
</g>
<g>
</g>
<g>
</g>
<g>
</g>
<g>
</g>
<g>
</g>
<g>
</g>
<g>
</g>
<g>
</g>
<g>
</g>
<g>
</g>
<g>
</g>
<g>
</g>
<g>
</g>
<g>
</g>
<g>
</g>
</svg>
